# xmcd
#
# Track frame offsets:
#	150
#	15510
#	31072
#	50295
#	62842
#	79230
#	103152
#	118325
#	135240
#	152300
#	154312
#	172697
#
# Disc length: 2542 seconds
#
# Revision: 1
# Processed by: cddbd v1.5.2PL0 Copyright (c) Steve Scherf et al.
# Submitted via: audiograbber 1.83.01
#
DISCID=8809ec0c
DTITLE=Thunder Alley - Thunder Alley
DYEAR=1900
DGENRE=Country
TTITLE0=From Here On Out
TTITLE1=Since I Found You
TTITLE2=Wherever I Go
TTITLE3=Music To My Ears
TTITLE4=Same Old Game
TTITLE5=More Time
TTITLE6=Confused Blues
TTITLE7=Little Angel
TTITLE8=Where's All The Romance Gone
TTITLE9=Thunder
TTITLE10=Thunder Canyon
TTITLE11=She's Dancing Again
EXTD=
EXTT0=
EXTT1=
EXTT2=
EXTT3=
EXTT4=
EXTT5=
EXTT6=
EXTT7=
EXTT8=
EXTT9=
EXTT10=
EXTT11=
PLAYORDER=
